<?xml version="1.0" encoding="utf-8"?>
<!-- Generator: Adobe Illustrator 25.3.1, SVG Export Plug-In . SVG Version: 6.00 Build 0)  -->
<svg version="1.1" id="Layer_1" xmlns="http://www.w3.org/2000/svg" xmlns:xlink="http://www.w3.org/1999/xlink" x="0px" y="0px"
	 viewBox="0 0 242.3 96.3" style="enable-background:new 0 0 242.3 96.3;" xml:space="preserve">
<style type="text/css">
	.st0{enable-background:new    ;}
	.st1{fill:#686C7A;}
	.st2{fill:#4CAF50;}
	.st3{fill:#8800FC;}
	.st4{opacity:0.1;enable-background:new    ;}
	.st5{fill:#FFFFFF;}
	.st6{opacity:0.2;fill:#686C7A;}
</style>
<g>
	<g class="st0">
		<path class="st1" d="M27-45.4l-4.6,2.7c-0.9-1.5-1.7-2.5-2.5-2.9c-0.8-0.5-1.9-0.8-3.1-0.8c-1.6,0-2.9,0.4-3.9,1.3
			c-1,0.9-1.6,2-1.6,3.3c0,1.8,1.4,3.3,4.1,4.4l3.8,1.5c3.1,1.2,5.3,2.7,6.7,4.5c1.4,1.8,2.1,4,2.1,6.6c0,3.5-1.2,6.3-3.5,8.6
			c-2.3,2.3-5.2,3.4-8.7,3.4c-3.3,0-6-1-8.1-2.9c-2.1-1.9-3.4-4.7-3.9-8.2L9.6-25c0.3,2.2,0.7,3.7,1.4,4.6c1.2,1.6,2.9,2.4,5.1,2.4
			c1.8,0,3.2-0.6,4.4-1.8c1.2-1.2,1.8-2.7,1.8-4.5c0-0.7-0.1-1.4-0.3-2c-0.2-0.6-0.5-1.2-1-1.7c-0.4-0.5-1-1-1.7-1.4
			c-0.7-0.4-1.5-0.9-2.4-1.3l-3.6-1.5c-5.2-2.2-7.7-5.4-7.7-9.6c0-2.8,1.1-5.2,3.2-7.1c2.2-1.9,4.9-2.9,8.1-2.9
			C21.2-51.7,24.6-49.6,27-45.4z"/>
		<path class="st1" d="M36.6-51l9.8,25.2l10.3-27l9.8,27L76.9-51h6.2L66.3-10.9l-9.7-26.7L46.5-10.9L30.5-51H36.6z"/>
		<path class="st1" d="M93.5-51v37.7h-5.7V-51H93.5z"/>
		<path class="st1" d="M113-45.6v32.3h-5.7v-32.3h-8.7V-51h23v5.3H113z"/>
		<path class="st1" d="M153.2-49v6.7c-3.3-2.8-6.7-4.1-10.2-4.1c-3.9,0-7.1,1.4-9.8,4.2c-2.7,2.8-4,6.2-4,10.2c0,4,1.3,7.3,4,10
			c2.7,2.7,5.9,4.1,9.8,4.1c2,0,3.7-0.3,5.1-1c0.8-0.3,1.6-0.8,2.4-1.3c0.8-0.6,1.7-1.2,2.6-2v6.9c-3.3,1.8-6.7,2.8-10.3,2.8
			c-5.4,0-10-1.9-13.8-5.6c-3.8-3.8-5.7-8.4-5.7-13.7c0-4.8,1.6-9.1,4.8-12.8c3.9-4.6,9-6.9,15.2-6.9C146.8-51.7,150-50.8,153.2-49z
			"/>
		<path class="st1" d="M167.1-36.2h16.3V-51h5.7v37.7h-5.7v-17.6h-16.3v17.6h-5.7V-51h5.7V-36.2z"/>
	</g>
	<g class="st0">
		<path class="st2" d="M5.2-105h14.5c2.6,0,5,0.5,7.2,1.5c2.2,1,4.2,2.4,5.9,4.1c1.7,1.7,3,3.7,4,6c1,2.3,1.5,4.7,1.5,7.2
			c0,2.5-0.5,4.8-1.4,7.1c-1,2.3-2.3,4.3-4,6c-1.7,1.7-3.6,3.1-5.9,4.2s-4.7,1.5-7.3,1.5H5.2V-105z M15-75.6h2.2
			c1.7,0,3.2-0.3,4.5-0.8c1.3-0.5,2.5-1.3,3.4-2.2c0.9-0.9,1.6-2,2.1-3.3c0.5-1.3,0.7-2.7,0.7-4.2c0-1.5-0.2-2.9-0.8-4.2
			s-1.2-2.4-2.1-3.4c-0.9-0.9-2-1.7-3.4-2.2c-1.3-0.5-2.8-0.8-4.5-0.8H15V-75.6z"/>
		<path class="st2" d="M69.9-96.7H58.3v6.3h11v8.3h-11v6.5h11.6v8.3H48.5V-105h21.4V-96.7z"/>
		<path class="st2" d="M102.6-96.7H90.8v6.3h10.8v8.3H90.8v14.8H81V-105h21.6V-96.7z"/>
		<path class="st2" d="M122.2-105v37.7h-9.8V-105H122.2z"/>
	</g>
	<g id="Group_1" transform="translate(-488.5 -198)">
		<path id="Rectangle_12" class="st3" d="M708.8,112.9L708.8,112.9c0,12.2-9.8,22-22,22h-39c-12.2,0-22-9.8-22-22l0,0
			c0-12.2,9.8-22,22-22h39C698.9,90.9,708.8,100.7,708.8,112.9z"/>
		<path id="Intersection_2" class="st4" d="M674,101.4l26.1,22l-11.2,11.4c-0.7,0.1-1.4,0.1-2.1,0.1h-39c-2.1,0-4.2-0.3-6.3-0.9
			L674,101.4z"/>
		<path id="Rectangle_13" class="st5" d="M703.8,112.9L703.8,112.9c0,9.4-7.6,17-17,17l0,0c-9.4,0-17-7.6-17-17l0,0
			c0-9.4,7.6-17,17-17l0,0C696.1,95.9,703.8,103.5,703.8,112.9z"/>
	</g>
</g>
<path class="st6" d="M193.7,96.6h-145c-26.7,0-48.5-21.8-48.5-48.5S21.9-0.4,48.7-0.4h145c26.7,0,48.5,21.8,48.5,48.5
	S220.4,96.6,193.7,96.6z M48.7,4.6c-24,0-43.5,19.5-43.5,43.5s19.5,43.5,43.5,43.5h145c24,0,43.5-19.5,43.5-43.5
	S217.6,4.6,193.7,4.6H48.7z"/>
<path id="Rectangle_6" class="st1" d="M89.5,9.6h103c21.3,0,38.5,17.2,38.5,38.5l0,0c0,21.3-17.2,38.5-38.5,38.5h-103
	C68.2,86.6,51,69.4,51,48.1l0,0C51,26.9,68.2,9.6,89.5,9.6z"/>
<g>
	<g class="st0">
		<path class="st5" d="M112.7,27.5c1.6,0,3.1,0.3,4.5,0.8c1.4,0.5,2.6,1.3,3.6,2.3c1,1,1.8,2.3,2.4,3.9c0.6,1.5,0.9,3.4,0.9,5.4
			c0,1.8-0.2,3.5-0.7,5.1c-0.5,1.5-1.2,2.9-2.1,4c-0.9,1.1-2.1,2-3.6,2.7c-1.4,0.6-3.1,1-5,1h-10.8V27.5H112.7z M112.4,47.9
			c0.8,0,1.6-0.1,2.3-0.4c0.7-0.3,1.4-0.7,2-1.3c0.6-0.6,1.1-1.4,1.4-2.3c0.4-1,0.5-2.1,0.5-3.5c0-1.3-0.1-2.4-0.4-3.4
			c-0.2-1-0.7-1.9-1.2-2.6c-0.6-0.7-1.3-1.3-2.2-1.7c-0.9-0.4-2.1-0.6-3.4-0.6h-3.9v15.8H112.4z"/>
		<path class="st5" d="M135.1,46.6c1,1,2.4,1.5,4.3,1.5c1.3,0,2.5-0.3,3.5-1c1-0.7,1.6-1.4,1.8-2.1h5.9c-0.9,2.9-2.4,5-4.3,6.2
			c-1.9,1.3-4.3,1.9-7,1.9c-1.9,0-3.6-0.3-5.2-0.9c-1.5-0.6-2.8-1.5-3.9-2.6c-1.1-1.1-1.9-2.5-2.5-4c-0.6-1.6-0.9-3.3-0.9-5.2
			c0-1.8,0.3-3.5,0.9-5.1c0.6-1.6,1.4-2.9,2.5-4.1c1.1-1.1,2.4-2,3.9-2.7c1.5-0.7,3.2-1,5-1c2.1,0,3.9,0.4,5.4,1.2
			c1.5,0.8,2.8,1.9,3.8,3.2c1,1.3,1.7,2.9,2.1,4.6c0.4,1.7,0.6,3.5,0.5,5.4h-17.5C133.6,44.1,134.1,45.6,135.1,46.6z M142.7,33.8
			c-0.8-0.9-2-1.3-3.6-1.3c-1.1,0-1.9,0.2-2.7,0.5c-0.7,0.4-1.3,0.8-1.7,1.3c-0.4,0.5-0.7,1.1-0.9,1.7c-0.2,0.6-0.3,1.1-0.3,1.6
			h10.9C144,36,143.5,34.7,142.7,33.8z"/>
		<path class="st5" d="M172.2,27.5v4.6H160v5.8h10.5v4.3H160v10.4h-5.5V27.5H172.2z"/>
		<path class="st5" d="M175,32.5v-5h5.6v5H175z M180.6,35.1v17.5H175V35.1H180.6z"/>
	</g>
	<g class="st0">
		<path class="st5" d="M104.2,66.5c0.1,0.2,0.3,0.4,0.5,0.6c0.2,0.1,0.4,0.3,0.7,0.3c0.3,0.1,0.6,0.1,0.8,0.1c0.2,0,0.4,0,0.6,0
			c0.2,0,0.4-0.1,0.6-0.2c0.2-0.1,0.4-0.2,0.5-0.4c0.1-0.2,0.2-0.4,0.2-0.6c0-0.3-0.1-0.5-0.3-0.7c-0.2-0.2-0.4-0.3-0.7-0.4
			c-0.3-0.1-0.6-0.2-1-0.3c-0.4-0.1-0.7-0.2-1.1-0.3c-0.4-0.1-0.7-0.2-1.1-0.3c-0.4-0.1-0.7-0.3-1-0.5c-0.3-0.2-0.5-0.5-0.7-0.8
			c-0.2-0.3-0.3-0.7-0.3-1.2c0-0.5,0.1-1,0.3-1.4c0.2-0.4,0.5-0.7,0.9-1s0.8-0.4,1.2-0.6c0.5-0.1,0.9-0.2,1.4-0.2
			c0.5,0,1,0.1,1.5,0.2c0.5,0.1,0.9,0.3,1.3,0.6c0.4,0.3,0.7,0.6,0.9,1c0.2,0.4,0.3,0.9,0.3,1.5h-2.2c0-0.3-0.1-0.6-0.2-0.8
			c-0.1-0.2-0.3-0.4-0.4-0.5c-0.2-0.1-0.4-0.2-0.6-0.2c-0.2,0-0.5-0.1-0.8-0.1c-0.2,0-0.4,0-0.5,0.1s-0.3,0.1-0.5,0.2
			c-0.1,0.1-0.3,0.2-0.4,0.4c-0.1,0.1-0.1,0.3-0.1,0.5c0,0.2,0,0.4,0.1,0.5c0.1,0.1,0.2,0.2,0.4,0.3c0.2,0.1,0.5,0.2,0.9,0.3
			c0.4,0.1,0.9,0.2,1.5,0.4c0.2,0,0.5,0.1,0.8,0.2c0.3,0.1,0.7,0.3,1,0.5c0.3,0.2,0.6,0.5,0.9,0.9c0.2,0.4,0.4,0.8,0.4,1.4
			c0,0.5-0.1,0.9-0.3,1.3c-0.2,0.4-0.4,0.7-0.8,1c-0.4,0.3-0.8,0.5-1.3,0.7c-0.5,0.2-1.1,0.2-1.8,0.2c-0.6,0-1.1-0.1-1.6-0.2
			c-0.5-0.1-1-0.4-1.4-0.6s-0.7-0.7-1-1.1c-0.2-0.5-0.3-1-0.3-1.6h2.2C104.1,66,104.1,66.3,104.2,66.5z"/>
		<path class="st5" d="M123.8,69l-1.7-6.9h0l-1.7,6.9h-2.2l-2.7-10.1h2.2l1.6,6.9h0l1.8-6.9h2.1l1.7,7h0l1.7-7h2.2L126,69H123.8z"/>
		<path class="st5" d="M136.6,58.9V69h-2.2V58.9H136.6z"/>
		<path class="st5" d="M142.5,60.8v-1.9h8.3v1.9h-3V69h-2.2v-8.2H142.5z"/>
		<path class="st5" d="M163.1,61.6c-0.1-0.2-0.3-0.4-0.5-0.6c-0.2-0.2-0.4-0.3-0.7-0.4c-0.2-0.1-0.5-0.1-0.8-0.1
			c-0.5,0-0.9,0.1-1.3,0.3c-0.3,0.2-0.6,0.5-0.8,0.8c-0.2,0.3-0.4,0.7-0.5,1.1c-0.1,0.4-0.1,0.8-0.1,1.3c0,0.4,0,0.8,0.1,1.2
			c0.1,0.4,0.3,0.8,0.5,1.1c0.2,0.3,0.5,0.6,0.8,0.8c0.3,0.2,0.8,0.3,1.3,0.3c0.7,0,1.2-0.2,1.6-0.6c0.4-0.4,0.6-1,0.7-1.6h2.2
			c-0.1,0.6-0.2,1.2-0.4,1.7c-0.2,0.5-0.5,0.9-0.9,1.3c-0.4,0.4-0.8,0.6-1.4,0.8c-0.5,0.2-1.1,0.3-1.7,0.3c-0.8,0-1.5-0.1-2.1-0.4
			c-0.6-0.3-1.1-0.6-1.6-1.1c-0.4-0.5-0.7-1-1-1.7c-0.2-0.6-0.3-1.3-0.3-2.1c0-0.8,0.1-1.5,0.3-2.1c0.2-0.6,0.6-1.2,1-1.7
			c0.4-0.5,0.9-0.9,1.6-1.1s1.3-0.4,2.1-0.4c0.6,0,1.1,0.1,1.6,0.2c0.5,0.2,0.9,0.4,1.3,0.7c0.4,0.3,0.7,0.7,1,1.1
			c0.3,0.5,0.4,1,0.5,1.6h-2.2C163.3,62,163.2,61.8,163.1,61.6z"/>
		<path class="st5" d="M173.9,58.9v3.9h4.1v-3.9h2.2V69H178v-4.4h-4.1V69h-2.2V58.9H173.9z"/>
	</g>
</g>
</svg>
